<mxfile host="app.diagrams.net" modified="2023-05-02T16:39:46.077Z" agent="Mozilla/5.0 (Windows NT 10.0; Win64; x64) AppleWebKit/537.36 (KHTML, like Gecko) Chrome/112.0.0.0 Safari/537.36" etag="dbVx5Xnde-kbHuvDlsdZ" version="21.2.4" type="device">
  <diagram name="Page-1" id="5IWbR3byUHGQwWN_jZgj">
    <mxGraphModel dx="794" dy="470" grid="0" gridSize="10" guides="1" tooltips="1" connect="1" arrows="1" fold="1" page="1" pageScale="1" pageWidth="850" pageHeight="1100" math="0" shadow="0">
      <root>
        <mxCell id="0" />
        <mxCell id="1" parent="0" />
        <mxCell id="4mBFnv-NswdTUFo5uwQ--3" value="Arduino Mega 2560" style="rounded=1;whiteSpace=wrap;html=1;fillColor=#fff2cc;strokeColor=#d6b656;" parent="1" vertex="1">
          <mxGeometry x="340" y="270" width="145" height="80" as="geometry" />
        </mxCell>
        <mxCell id="4mBFnv-NswdTUFo5uwQ--4" value="Matrice led&lt;br&gt;8x8" style="rounded=1;whiteSpace=wrap;html=1;fillColor=#d5e8d4;strokeColor=#82b366;" parent="1" vertex="1">
          <mxGeometry x="352.5" y="150" width="120" height="60" as="geometry" />
        </mxCell>
        <mxCell id="4mBFnv-NswdTUFo5uwQ--5" value="Potentiomentru" style="ellipse;whiteSpace=wrap;html=1;fillColor=#e1d5e7;strokeColor=#9673a6;" parent="1" vertex="1">
          <mxGeometry x="140" y="325" width="100" height="85" as="geometry" />
        </mxCell>
        <mxCell id="4mBFnv-NswdTUFo5uwQ--6" value="Pompa de apa" style="rounded=1;whiteSpace=wrap;html=1;fillColor=#d5e8d4;strokeColor=#82b366;" parent="1" vertex="1">
          <mxGeometry x="660" y="335" width="120" height="60" as="geometry" />
        </mxCell>
        <mxCell id="4mBFnv-NswdTUFo5uwQ--7" value="Releu" style="ellipse;whiteSpace=wrap;html=1;fillColor=#f8cecc;strokeColor=#b85450;" parent="1" vertex="1">
          <mxGeometry x="540" y="340" width="80" height="50" as="geometry" />
        </mxCell>
        <mxCell id="4mBFnv-NswdTUFo5uwQ--9" value="Convertor tensiune" style="ellipse;whiteSpace=wrap;html=1;fillColor=#ffe6cc;strokeColor=#d79b00;" parent="1" vertex="1">
          <mxGeometry x="450" y="420" width="80" height="60" as="geometry" />
        </mxCell>
        <mxCell id="4mBFnv-NswdTUFo5uwQ--10" value="Rezervor&amp;nbsp;apa" style="shape=cylinder3;whiteSpace=wrap;html=1;boundedLbl=1;backgroundOutline=1;size=15;fillColor=#dae8fc;strokeColor=#6c8ebf;" parent="1" vertex="1">
          <mxGeometry x="655" y="170" width="130" height="120" as="geometry" />
        </mxCell>
        <mxCell id="4mBFnv-NswdTUFo5uwQ--15" value="Sursa alimentare externa" style="ellipse;whiteSpace=wrap;html=1;fillColor=#f8cecc;strokeColor=#b85450;" parent="1" vertex="1">
          <mxGeometry x="270" y="410" width="120" height="80" as="geometry" />
        </mxCell>
        <mxCell id="4mBFnv-NswdTUFo5uwQ--19" value="" style="endArrow=classic;html=1;rounded=0;edgeStyle=elbowEdgeStyle;entryX=0;entryY=0.5;entryDx=0;entryDy=0;fillColor=#60a917;strokeColor=#00FF00;" parent="1" target="4mBFnv-NswdTUFo5uwQ--7" edge="1">
          <mxGeometry width="50" height="50" relative="1" as="geometry">
            <mxPoint x="485" y="310" as="sourcePoint" />
            <mxPoint x="535" y="250" as="targetPoint" />
          </mxGeometry>
        </mxCell>
        <mxCell id="4mBFnv-NswdTUFo5uwQ--21" value="" style="endArrow=classic;html=1;rounded=0;exitX=1;exitY=0.5;exitDx=0;exitDy=0;entryX=0;entryY=0.5;entryDx=0;entryDy=0;fillColor=#60a917;strokeColor=#00FF00;" parent="1" source="4mBFnv-NswdTUFo5uwQ--7" target="4mBFnv-NswdTUFo5uwQ--6" edge="1">
          <mxGeometry width="50" height="50" relative="1" as="geometry">
            <mxPoint x="610" y="460" as="sourcePoint" />
            <mxPoint x="660" y="410" as="targetPoint" />
          </mxGeometry>
        </mxCell>
        <mxCell id="4mBFnv-NswdTUFo5uwQ--23" value="" style="endArrow=classic;html=1;rounded=0;exitX=1;exitY=0.5;exitDx=0;exitDy=0;entryX=0.5;entryY=1;entryDx=0;entryDy=0;fillColor=#fa6800;strokeColor=#FF9933;" parent="1" source="4mBFnv-NswdTUFo5uwQ--9" target="4mBFnv-NswdTUFo5uwQ--7" edge="1">
          <mxGeometry width="50" height="50" relative="1" as="geometry">
            <mxPoint x="610" y="470" as="sourcePoint" />
            <mxPoint x="660" y="420" as="targetPoint" />
            <Array as="points">
              <mxPoint x="580" y="450" />
            </Array>
          </mxGeometry>
        </mxCell>
        <mxCell id="4mBFnv-NswdTUFo5uwQ--24" value="" style="endArrow=classic;html=1;rounded=0;exitX=1;exitY=0.5;exitDx=0;exitDy=0;entryX=0;entryY=0.5;entryDx=0;entryDy=0;fillColor=#fa6800;strokeColor=#FF9933;" parent="1" source="4mBFnv-NswdTUFo5uwQ--15" target="4mBFnv-NswdTUFo5uwQ--9" edge="1">
          <mxGeometry width="50" height="50" relative="1" as="geometry">
            <mxPoint x="490" y="400" as="sourcePoint" />
            <mxPoint x="540" y="350" as="targetPoint" />
          </mxGeometry>
        </mxCell>
        <mxCell id="4mBFnv-NswdTUFo5uwQ--25" value="" style="endArrow=classic;html=1;rounded=0;entryX=0.5;entryY=1;entryDx=0;entryDy=0;exitX=0.5;exitY=0;exitDx=0;exitDy=0;fillColor=#60a917;strokeColor=#00FF00;" parent="1" source="4mBFnv-NswdTUFo5uwQ--3" target="4mBFnv-NswdTUFo5uwQ--4" edge="1">
          <mxGeometry width="50" height="50" relative="1" as="geometry">
            <mxPoint x="450" y="270" as="sourcePoint" />
            <mxPoint x="500" y="220" as="targetPoint" />
            <Array as="points" />
          </mxGeometry>
        </mxCell>
        <mxCell id="4mBFnv-NswdTUFo5uwQ--26" value="" style="endArrow=classic;html=1;rounded=0;exitX=1;exitY=0.5;exitDx=0;exitDy=0;entryX=0;entryY=0.75;entryDx=0;entryDy=0;strokeColor=#FF26FF;dashed=1;" parent="1" source="4mBFnv-NswdTUFo5uwQ--5" target="4mBFnv-NswdTUFo5uwQ--3" edge="1">
          <mxGeometry width="50" height="50" relative="1" as="geometry">
            <mxPoint x="470" y="320" as="sourcePoint" />
            <mxPoint x="520" y="270" as="targetPoint" />
            <Array as="points">
              <mxPoint x="300" y="368" />
              <mxPoint x="300" y="330" />
            </Array>
          </mxGeometry>
        </mxCell>
        <mxCell id="4mBFnv-NswdTUFo5uwQ--27" value="" style="endArrow=classic;html=1;rounded=0;exitX=0.5;exitY=1;exitDx=0;exitDy=0;exitPerimeter=0;entryX=0.5;entryY=0;entryDx=0;entryDy=0;fillColor=#1ba1e2;strokeColor=#33FFFF;" parent="1" source="4mBFnv-NswdTUFo5uwQ--10" target="4mBFnv-NswdTUFo5uwQ--6" edge="1">
          <mxGeometry width="50" height="50" relative="1" as="geometry">
            <mxPoint x="750" y="307.5" as="sourcePoint" />
            <mxPoint x="800" y="257.5" as="targetPoint" />
          </mxGeometry>
        </mxCell>
        <mxCell id="DTECxnnO2v7nyCdXkynT-1" value="Push button" style="ellipse;whiteSpace=wrap;html=1;aspect=fixed;fillColor=#e1d5e7;strokeColor=#9673a6;" parent="1" vertex="1">
          <mxGeometry x="150" y="220" width="70" height="70" as="geometry" />
        </mxCell>
        <mxCell id="DTECxnnO2v7nyCdXkynT-2" value="" style="endArrow=classic;html=1;rounded=0;exitX=1;exitY=0.5;exitDx=0;exitDy=0;entryX=0;entryY=0.25;entryDx=0;entryDy=0;dashed=1;strokeColor=#FF26FF;" parent="1" source="DTECxnnO2v7nyCdXkynT-1" target="4mBFnv-NswdTUFo5uwQ--3" edge="1">
          <mxGeometry width="50" height="50" relative="1" as="geometry">
            <mxPoint x="250" y="280" as="sourcePoint" />
            <mxPoint x="320" y="290" as="targetPoint" />
            <Array as="points">
              <mxPoint x="290" y="255" />
              <mxPoint x="290" y="290" />
            </Array>
          </mxGeometry>
        </mxCell>
      </root>
    </mxGraphModel>
  </diagram>
</mxfile>
